<svg width="0" height="0" class="hidden">
  <symbol version="1.0" xmlns="http://www.w3.org/2000/svg" preserveAspectRatio="xMidYMid meet" viewBox="0 0 474.000000 474.000000" id="play">
    <metadata>Created by potrace 1.16, written by Peter Selinger 2001-2019</metadata>
    <g transform="translate(0.000000,474.000000) scale(0.100000,-0.100000)" fill="currentColor" stroke="none">
      <path d="M1058 3806 c-78 -29 -127 -79 -148 -151 -8 -29 -10 -368 -8 -1270 l3
-1230 28 -48 c50 -85 152 -131 244 -110 26 7 476 224 998 483 523 260 1067
530 1210 600 143 70 275 139 293 155 100 84 103 245 5 337 -15 15 -316 169
-668 344 -352 174 -903 447 -1225 606 -634 314 -643 318 -732 284z"></path>
    </g>
  </symbol>
</svg>