<svg width="0" height="0" class="hidden">
  <symbol version="1.0" xmlns="http://www.w3.org/2000/svg" preserveAspectRatio="xMidYMid meet" viewBox="0 0 512.000000 512.000000" id="book">
    <metadata>Created by potrace 1.16, written by Peter Selinger 2001-2019</metadata>
    <g transform="translate(0.000000,512.000000) scale(0.100000,-0.100000)" fill="currentColor" stroke="none">
      <path d="M1210 5104 c-183 -48 -351 -187 -431 -359 -63 -134 -59 12 -59 -2156
0 -1933 0 -1977 20 -2053 63 -248 268 -453 516 -516 75 -19 118 -20 1558 -20
1460 0 1481 0 1514 20 48 30 72 75 72 140 0 65 -24 110 -72 140 -33 20 -54 20
-1448 20 -896 0 -1441 4 -1485 10 -38 6 -93 21 -122 35 -70 32 -157 120 -191
192 -24 52 -27 70 -27 163 0 93 3 111 27 163 34 72 121 160 191 192 29 14 84
29 122 35 44 6 589 10 1485 10 1394 0 1415 0 1448 20 18 11 41 34 52 52 20 33
20 55 20 1928 0 1873 0 1895 -20 1928 -11 18 -34 41 -52 52 -33 20 -53 20
-1548 19 -1287 0 -1523 -2 -1570 -15z m230 -1984 l0 -1680 -53 0 c-74 0 -191
-32 -276 -74 l-71 -36 0 1552 c0 854 4 1580 9 1613 27 183 160 295 364 304
l27 1 0 -1680z m2640 0 l0 -1680 -1160 0 -1160 0 0 1680 0 1680 1160 0 1160 0
0 -1680z"></path>
      <path d="M1352 860 c-48 -30 -72 -75 -72 -140 0 -65 24 -110 72 -140 33 -20
54 -20 1488 -20 1434 0 1455 0 1488 20 48 30 72 75 72 140 0 65 -24 110 -72
140 -33 20 -54 20 -1488 20 -1434 0 -1455 0 -1488 -20z"></path>
    </g>
  </symbol>
  <symbol version="1.0" xmlns="http://www.w3.org/2000/svg" preserveAspectRatio="xMidYMid meet" viewBox="0 0 512.000000 512.000000" id="search">
    <metadata>Created by potrace 1.16, written by Peter Selinger 2001-2019</metadata>
    <g transform="translate(0.000000,512.000000) scale(0.100000,-0.100000)" fill="currentColor" stroke="none">
      <path d="M1825 5100 c-467 -72 -877 -280 -1210 -615 -343 -344 -546 -757 -605
-1235 -13 -109 -13 -391 0 -500 38 -304 146 -613 303 -860 173 -275 436 -534
708 -698 270 -162 568 -264 879 -302 128 -15 412 -12 542 6 373 52 711 187
1000 400 34 24 65 43 69 42 4 -2 305 -295 669 -653 364 -357 675 -658 693
-667 68 -38 176 -15 219 45 26 37 36 124 18 167 -9 23 -942 953 -1314 1311
l-39 38 62 73 c142 166 297 435 370 642 188 533 157 1116 -84 1614 -111 229
-236 404 -423 590 -339 338 -786 553 -1272 612 -137 16 -447 11 -585 -10z
m478 -320 c772 -64 1413 -597 1610 -1340 40 -152 52 -252 52 -440 0 -188 -12
-288 -52 -440 -84 -315 -237 -582 -469 -814 -488 -489 -1218 -658 -1877 -435
-520 176 -939 582 -1120 1084 -185 513 -129 1072 153 1527 330 531 896 851
1535 866 28 1 103 -3 168 -8z"></path>
    </g>
  </symbol>
</svg>